Griffith_Gothic-Light_Italic.ufo
<glyph name="quotedbl" format="1">
  <advance width="334"/>
  <unicode hex="0022"/>
  <outline>
    <contour>
      <point x="375" y="720" type="line"/>
      <point x="304" y="505" type="line"/>
      <point x="265" y="505" type="line"/>
      <point x="301" y="720" type="line"/>
    </contour>
    <contour>
      <point x="226" y="720" type="line"/>
      <point x="155" y="505" type="line"/>
      <point x="116" y="505" type="line"/>
      <point x="153" y="720" type="line"/>
    </contour>
  </outline>
</glyph>
<glyph name="dollar" format="1">
  <advance width="547"/>
  <unicode hex="0024"/>
  <outline>
    <contour>
      <point x="567" y="616" type="curve"/>
      <point x="524" y="576" type="line"/>
      <point x="491" y="622"/>
      <point x="451" y="653"/>
      <point x="398" y="665" type="curve"/>
      <point x="331" y="393" type="line"/>
      <point x="444" y="334"/>
      <point x="488" y="280"/>
      <point x="488" y="199" type="curve" smooth="yes"/>
      <point x="488" y="77"/>
      <point x="383" y="-1"/>
      <point x="249" y="-1" type="curve" smooth="yes"/>
      <point x="244" y="-1"/>
      <point x="240" y="-1"/>
      <point x="235" y="-1" type="curve"/>
      <point x="211" y="-95" type="line"/>
      <point x="164" y="-95" type="line"/>
      <point x="189" y="4" type="line"/>
      <point x="111" y="18"/>
      <point x="47" y="60"/>
      <point x="7" y="117" type="curve"/>
      <point x="50" y="157" type="line"/>
      <point x="90" y="101"/>
      <point x="137" y="65"/>
      <point x="203" y="53" type="curve"/>
      <point x="280" y="358" type="line"/>
      <point x="187" y="406"/>
      <point x="133" y="453"/>
      <point x="133" y="536" type="curve" smooth="yes"/>
      <point x="133" y="650"/>
      <point x="229" y="721"/>
      <point x="349" y="721" type="curve" smooth="yes"/>
      <point x="355" y="721"/>
      <point x="361" y="721"/>
      <point x="367" y="721" type="curve"/>
      <point x="377" y="762" type="line"/>
      <point x="424" y="762" type="line"/>
      <point x="412" y="715" type="line"/>
      <point x="477" y="702"/>
      <point x="528" y="668"/>
    </contour>
    <contour>
      <point x="358" y="671" type="line"/>
      <point x="354" y="671"/>
      <point x="349" y="671"/>
      <point x="345" y="671" type="curve" smooth="yes"/>
      <point x="253" y="671"/>
      <point x="196" y="620"/>
      <point x="196" y="542" type="curve" smooth="yes"/>
      <point x="196" y="487"/>
      <point x="222" y="454"/>
      <point x="293" y="413" type="curve"/>
    </contour>
    <contour>
      <point x="425" y="194" type="curve" smooth="yes"/>
      <point x="425" y="250"/>
      <point x="397" y="292"/>
      <point x="317" y="338" type="curve"/>
      <point x="245" y="49" type="line"/>
      <point x="248" y="49"/>
      <point x="251" y="49"/>
      <point x="254" y="49" type="curve" smooth="yes"/>
      <point x="368" y="49"/>
      <point x="425" y="113"/>
    </contour>
  </outline>
</glyph>
<glyph name="period" format="1">
  <advance width="186"/>
  <unicode hex="002E"/>
  <outline>
    <contour>
      <point x="90" y="43" type="curve" smooth="yes"/>
      <point x="90" y="14"/>
      <point x="69" y="-7"/>
      <point x="40" y="-7" type="curve" smooth="yes"/>
      <point x="12" y="-7"/>
      <point x="-9" y="14"/>
      <point x="-9" y="43" type="curve" smooth="yes"/>
      <point x="-9" y="71"/>
      <point x="12" y="92"/>
      <point x="40" y="92" type="curve" smooth="yes"/>
      <point x="69" y="92"/>
      <point x="90" y="71"/>
    </contour>
  </outline>
</glyph>
<glyph name="slash" format="1">
  <advance width="379"/>
  <unicode hex="002F"/>
  <outline>
    <contour>
      <point x="481" y="735" type="line"/>
      <point x="-31" y="-95" type="line"/>
      <point x="-101" y="-95" type="line"/>
      <point x="412" y="735" type="line"/>
    </contour>
  </outline>
</glyph>
<glyph name="zero" format="1">
  <advance width="592"/>
  <unicode hex="0030"/>
  <outline>
    <contour>
      <point x="581" y="497" type="line" smooth="yes"/>
      <point x="581" y="444"/>
      <point x="573" y="387"/>
      <point x="562" y="339" type="curve" smooth="yes"/>
      <point x="513" y="131"/>
      <point x="392" y="-12"/>
      <point x="249" y="-12" type="curve" smooth="yes"/>
      <point x="129" y="-12"/>
      <point x="61" y="79"/>
      <point x="61" y="221" type="curve" smooth="yes"/>
      <point x="61" y="223" type="line" smooth="yes"/>
      <point x="61" y="276"/>
      <point x="69" y="333"/>
      <point x="80" y="381" type="curve" smooth="yes"/>
      <point x="129" y="589"/>
      <point x="250" y="732"/>
      <point x="393" y="732" type="curve" smooth="yes"/>
      <point x="513" y="732"/>
      <point x="581" y="641"/>
      <point x="581" y="499" type="curve" smooth="yes"/>
    </contour>
    <contour>
      <point x="510" y="498" type="curve" smooth="yes"/>
      <point x="510" y="500" type="line" smooth="yes"/>
      <point x="510" y="603"/>
      <point x="472" y="676"/>
      <point x="388" y="676" type="curve" smooth="yes"/>
      <point x="286" y="676"/>
      <point x="201" y="557"/>
      <point x="156" y="396" type="curve" smooth="yes"/>
      <point x="141" y="343"/>
      <point x="132" y="277"/>
      <point x="132" y="222" type="curve" smooth="yes"/>
      <point x="132" y="220" type="line" smooth="yes"/>
      <point x="132" y="117"/>
      <point x="170" y="44"/>
      <point x="254" y="44" type="curve" smooth="yes"/>
      <point x="356" y="44"/>
      <point x="441" y="163"/>
      <point x="486" y="324" type="curve" smooth="yes"/>
      <point x="501" y="377"/>
      <point x="510" y="443"/>
    </contour>
  </outline>
</glyph>
<glyph name="one" format="1">
  <advance width="440"/>
  <unicode hex="0031"/>
  <outline>
    <contour>
      <point x="386" y="720" type="line"/>
      <point x="218" y="50" type="line"/>
      <point x="364" y="50" type="line"/>
      <point x="351" y="0" type="line"/>
      <point x="-13" y="0" type="line"/>
      <point x="0" y="50" type="line"/>
      <point x="149" y="50" type="line"/>
      <point x="304" y="670" type="line"/>
      <point x="142" y="670" type="line"/>
      <point x="155" y="720" type="line"/>
    </contour>
  </outline>
</glyph>
<glyph name="two" format="1">
  <advance width="550"/>
  <unicode hex="0032"/>
  <outline>
    <contour>
      <point x="552" y="566" type="curve" smooth="yes"/>
      <point x="552" y="444"/>
      <point x="466" y="369"/>
      <point x="327" y="292" type="curve" smooth="yes"/>
      <point x="193" y="218"/>
      <point x="121" y="139"/>
      <point x="86" y="54" type="curve"/>
      <point x="447" y="54" type="line"/>
      <point x="434" y="0" type="line"/>
      <point x="0" y="0" type="line"/>
      <point x="10" y="46" type="line"/>
      <point x="65" y="167"/>
      <point x="145" y="252"/>
      <point x="299" y="339" type="curve" smooth="yes"/>
      <point x="415" y="404"/>
      <point x="482" y="465"/>
      <point x="482" y="560" type="curve" smooth="yes"/>
      <point x="482" y="629"/>
      <point x="442" y="677"/>
      <point x="364" y="677" type="curve" smooth="yes"/>
      <point x="293" y="677"/>
      <point x="234" y="637"/>
      <point x="173" y="557" type="curve"/>
      <point x="124" y="589" type="line"/>
      <point x="191" y="678"/>
      <point x="268" y="732"/>
      <point x="373" y="732" type="curve" smooth="yes"/>
      <point x="486" y="732"/>
      <point x="552" y="664"/>
    </contour>
  </outline>
</glyph>
<glyph name="four" format="1">
  <advance width="571"/>
  <unicode hex="0034"/>
  <outline>
    <contour>
      <point x="554" y="720" type="line"/>
      <point x="437" y="250" type="line"/>
      <point x="532" y="250" type="line"/>
      <point x="520" y="203" type="line"/>
      <point x="426" y="203" type="line"/>
      <point x="375" y="0" type="line"/>
      <point x="308" y="0" type="line"/>
      <point x="359" y="203" type="line"/>
      <point x="25" y="203" type="line"/>
      <point x="43" y="273" type="line"/>
      <point x="452" y="720" type="line"/>
    </contour>
    <contour>
      <point x="473" y="660" type="line"/>
      <point x="460" y="660" type="line"/>
      <point x="95" y="263" type="line"/>
      <point x="91" y="250" type="line"/>
      <point x="370" y="250" type="line"/>
    </contour>
  </outline>
</glyph>
<glyph name="eight" format="1">
  <advance width="582"/>
  <unicode hex="0038"/>
  <outline>
    <contour>
      <point x="577" y="562" type="curve" smooth="yes"/>
      <point x="577" y="464"/>
      <point x="493" y="401"/>
      <point x="416" y="379" type="curve"/>
      <point x="415" y="373" type="line"/>
      <point x="478" y="343"/>
      <point x="526" y="291"/>
      <point x="526" y="209" type="curve" smooth="yes"/>
      <point x="526" y="87"/>
      <point x="415" y="-11"/>
      <point x="264" y="-11" type="curve" smooth="yes"/>
      <point x="124" y="-11"/>
      <point x="39" y="67"/>
      <point x="39" y="177" type="curve" smooth="yes"/>
      <point x="39" y="292"/>
      <point x="130" y="365"/>
      <point x="228" y="391" type="curve"/>
      <point x="230" y="398" type="line"/>
      <point x="172" y="431"/>
      <point x="140" y="473"/>
      <point x="140" y="541" type="curve" smooth="yes"/>
      <point x="140" y="647"/>
      <point x="235" y="732"/>
      <point x="371" y="732" type="curve" smooth="yes"/>
      <point x="501" y="732"/>
      <point x="577" y="665"/>
    </contour>
    <contour>
      <point x="507" y="561" type="curve" smooth="yes"/>
      <point x="507" y="631"/>
      <point x="457" y="680"/>
      <point x="367" y="680" type="curve" smooth="yes"/>
      <point x="271" y="680"/>
      <point x="207" y="617"/>
      <point x="207" y="536" type="curve" smooth="yes"/>
      <point x="207" y="457"/>
      <point x="264" y="404"/>
      <point x="342" y="404" type="curve" smooth="yes"/>
      <point x="441" y="404"/>
      <point x="507" y="479"/>
    </contour>
    <contour>
      <point x="457" y="215" type="curve" smooth="yes"/>
      <point x="457" y="299"/>
      <point x="396" y="362"/>
      <point x="300" y="362" type="curve" smooth="yes"/>
      <point x="195" y="362"/>
      <point x="109" y="282"/>
      <point x="109" y="185" type="curve" smooth="yes"/>
      <point x="109" y="100"/>
      <point x="164" y="41"/>
      <point x="267" y="41" type="curve" smooth="yes"/>
      <point x="378" y="41"/>
      <point x="457" y="117"/>
    </contour>
  </outline>
</glyph>
<glyph name="colon" format="1">
  <advance width="204"/>
  <unicode hex="003A"/>
  <outline>
    <contour>
      <point x="204" y="472" type="curve" smooth="yes"/>
      <point x="204" y="443"/>
      <point x="184" y="422"/>
      <point x="155" y="422" type="curve" smooth="yes"/>
      <point x="126" y="422"/>
      <point x="105" y="443"/>
      <point x="105" y="472" type="curve" smooth="yes"/>
      <point x="105" y="500"/>
      <point x="126" y="521"/>
      <point x="155" y="521" type="curve" smooth="yes"/>
      <point x="184" y="521"/>
      <point x="204" y="500"/>
    </contour>
    <contour>
      <point x="99" y="43" type="curve" smooth="yes"/>
      <point x="99" y="14"/>
      <point x="78" y="-7"/>
      <point x="50" y="-7" type="curve" smooth="yes"/>
      <point x="21" y="-7"/>
      <point x="0" y="14"/>
      <point x="0" y="43" type="curve" smooth="yes"/>
      <point x="0" y="71"/>
      <point x="21" y="92"/>
      <point x="50" y="92" type="curve" smooth="yes"/>
      <point x="78" y="92"/>
      <point x="99" y="71"/>
    </contour>
  </outline>
</glyph>
<glyph name="equal" format="1">
  <advance width="600"/>
  <unicode hex="003D"/>
  <outline>
    <contour>
      <point x="565" y="443" type="line"/>
      <point x="84" y="443" type="line"/>
      <point x="84" y="505" type="line"/>
      <point x="565" y="505" type="line"/>
    </contour>
    <contour>
      <point x="565" y="205" type="line"/>
      <point x="84" y="205" type="line"/>
      <point x="84" y="267" type="line"/>
      <point x="565" y="267" type="line"/>
    </contour>
  </outline>
</glyph>
<glyph name="A" format="1">
  <advance width="662"/>
  <unicode hex="0041"/>
  <outline>
    <contour>
      <point x="570" y="0" type="line"/>
      <point x="500" y="0" type="line"/>
      <point x="482" y="192" type="line"/>
      <point x="151" y="192" type="line"/>
      <point x="37" y="0" type="line"/>
      <point x="-36" y="0" type="line"/>
      <point x="398" y="724" type="line"/>
      <point x="496" y="724" type="line"/>
    </contour>
    <contour>
      <point x="479" y="244" type="line"/>
      <point x="439" y="667" type="line"/>
      <point x="431" y="667" type="line"/>
      <point x="180" y="244" type="line"/>
    </contour>
  </outline>
</glyph>
<glyph name="B" format="1">
  <advance width="606"/>
  <unicode hex="0042"/>
  <outline>
    <contour>
      <point x="610" y="572" type="curve" smooth="yes"/>
      <point x="610" y="475"/>
      <point x="527" y="408"/>
      <point x="429" y="386" type="curve"/>
      <point x="429" y="382" type="line"/>
      <point x="501" y="361"/>
      <point x="554" y="316"/>
      <point x="554" y="236" type="curve" smooth="yes"/>
      <point x="554" y="85"/>
      <point x="431" y="0"/>
      <point x="257" y="0" type="curve" smooth="yes"/>
      <point x="19" y="0" type="line"/>
      <point x="199" y="720" type="line"/>
      <point x="410" y="720" type="line" smooth="yes"/>
      <point x="543" y="720"/>
      <point x="610" y="664"/>
    </contour>
    <contour>
      <point x="538" y="564" type="curve" smooth="yes"/>
      <point x="538" y="628"/>
      <point x="493" y="666"/>
      <point x="400" y="666" type="curve" smooth="yes"/>
      <point x="254" y="666" type="line"/>
      <point x="191" y="411" type="line"/>
      <point x="339" y="411" type="line" smooth="yes"/>
      <point x="458" y="411"/>
      <point x="538" y="474"/>
    </contour>
    <contour>
      <point x="485" y="235" type="curve" smooth="yes"/>
      <point x="485" y="304"/>
      <point x="440" y="360"/>
      <point x="326" y="360" type="curve" smooth="yes"/>
      <point x="179" y="360" type="line"/>
      <point x="102" y="54" type="line"/>
      <point x="254" y="54" type="line" smooth="yes"/>
      <point x="393" y="54"/>
      <point x="485" y="114"/>
    </contour>
  </outline>
</glyph>
<glyph name="C" format="1">
  <advance width="575"/>
  <unicode hex="0043"/>
  <outline>
    <contour>
      <point x="590" y="509" type="curve"/>
      <point x="523" y="495" type="line"/>
      <point x="524" y="611"/>
      <point x="486" y="676"/>
      <point x="397" y="676" type="curve" smooth="yes"/>
      <point x="283" y="676"/>
      <point x="196" y="543"/>
      <point x="156" y="393" type="curve" smooth="yes"/>
      <point x="140" y="334"/>
      <point x="132" y="281"/>
      <point x="132" y="231" type="curve" smooth="yes"/>
      <point x="132" y="229" type="line" smooth="yes"/>
      <point x="132" y="126"/>
      <point x="173" y="44"/>
      <point x="267" y="44" type="curve" smooth="yes"/>
      <point x="350" y="44"/>
      <point x="408" y="106"/>
      <point x="457" y="211" type="curve"/>
      <point x="519" y="189" type="line"/>
      <point x="458" y="59"/>
      <point x="376" y="-12"/>
      <point x="261" y="-12" type="curve" smooth="yes"/>
      <point x="133" y="-12"/>
      <point x="61" y="81"/>
      <point x="61" y="229" type="curve" smooth="yes"/>
      <point x="61" y="232" type="line" smooth="yes"/>
      <point x="61" y="276"/>
      <point x="66" y="319"/>
      <point x="78" y="371" type="curve" smooth="yes"/>
      <point x="121" y="567"/>
      <point x="237" y="732"/>
      <point x="403" y="732" type="curve" smooth="yes"/>
      <point x="533" y="732"/>
      <point x="594" y="648"/>
    </contour>
  </outline>
</glyph>
<glyph name="F" format="1">
  <advance width="521"/>
  <unicode hex="0046"/>
  <outline>
    <contour>
      <point x="612" y="720" type="line"/>
      <point x="597" y="663" type="line"/>
      <point x="256" y="663" type="line"/>
      <point x="188" y="388" type="line"/>
      <point x="461" y="388" type="line"/>
      <point x="447" y="332" type="line"/>
      <point x="174" y="332" type="line"/>
      <point x="91" y="0" type="line"/>
      <point x="19" y="0" type="line"/>
      <point x="199" y="720" type="line"/>
    </contour>
  </outline>
</glyph>
<glyph name="H" format="1">
  <advance width="623"/>
  <unicode hex="0048"/>
  <outline>
    <contour>
      <point x="654" y="720" type="line"/>
      <point x="475" y="0" type="line"/>
      <point x="403" y="0" type="line"/>
      <point x="490" y="347" type="line"/>
      <point x="178" y="347" type="line"/>
      <point x="91" y="0" type="line"/>
      <point x="19" y="0" type="line"/>
      <point x="199" y="720" type="line"/>
      <point x="270" y="720" type="line"/>
      <point x="192" y="407" type="line"/>
      <point x="504" y="407" type="line"/>
      <point x="583" y="720" type="line"/>
    </contour>
  </outline>
</glyph>
<glyph name="K" format="1">
  <advance width="587"/>
  <unicode hex="004B"/>
  <outline>
    <contour>
      <point x="687" y="720" type="line"/>
      <point x="299" y="387" type="line"/>
      <point x="522" y="0" type="line"/>
      <point x="443" y="0" type="line"/>
      <point x="220" y="391" type="line"/>
      <point x="221" y="394" type="line"/>
      <point x="599" y="720" type="line"/>
    </contour>
    <contour>
      <point x="270" y="720" type="line"/>
      <point x="91" y="0" type="line"/>
      <point x="19" y="0" type="line"/>
      <point x="199" y="720" type="line"/>
    </contour>
  </outline>
</glyph>
<glyph name="N" format="1">
  <advance width="640"/>
  <unicode hex="004E"/>
  <outline>
    <contour>
      <point x="669" y="720" type="line"/>
      <point x="490" y="0" type="line"/>
      <point x="406" y="0" type="line"/>
      <point x="250" y="629" type="line"/>
      <point x="242" y="629" type="line"/>
      <point x="86" y="0" type="line"/>
      <point x="19" y="0" type="line"/>
      <point x="199" y="720" type="line"/>
      <point x="289" y="720" type="line"/>
      <point x="442" y="104" type="line"/>
      <point x="449" y="104" type="line"/>
      <point x="602" y="720" type="line"/>
    </contour>
  </outline>
</glyph>
<glyph name="O" format="1">
  <advance width="613"/>
  <unicode hex="004F"/>
  <outline>
    <contour>
      <point x="603" y="488" type="line" smooth="yes"/>
      <point x="603" y="440"/>
      <point x="596" y="391"/>
      <point x="584" y="339" type="curve" smooth="yes"/>
      <point x="542" y="149"/>
      <point x="426" y="-12"/>
      <point x="263" y="-12" type="curve" smooth="yes"/>
      <point x="135" y="-12"/>
      <point x="61" y="81"/>
      <point x="61" y="229" type="curve" smooth="yes"/>
      <point x="61" y="232" type="line" smooth="yes"/>
      <point x="61" y="280"/>
      <point x="67" y="329"/>
      <point x="79" y="381" type="curve" smooth="yes"/>
      <point x="121" y="571"/>
      <point x="238" y="732"/>
      <point x="401" y="732" type="curve" smooth="yes"/>
      <point x="529" y="732"/>
      <point x="603" y="639"/>
      <point x="603" y="491" type="curve" smooth="yes"/>
    </contour>
    <contour>
      <point x="531" y="489" type="curve" smooth="yes"/>
      <point x="531" y="491" type="line" smooth="yes"/>
      <point x="531" y="593"/>
      <point x="490" y="676"/>
      <point x="395" y="676" type="curve" smooth="yes"/>
      <point x="284" y="676"/>
      <point x="197" y="548"/>
      <point x="157" y="399" type="curve" smooth="yes"/>
      <point x="141" y="340"/>
      <point x="132" y="281"/>
      <point x="132" y="231" type="curve" smooth="yes"/>
      <point x="132" y="229" type="line" smooth="yes"/>
      <point x="132" y="127"/>
      <point x="174" y="44"/>
      <point x="269" y="44" type="curve" smooth="yes"/>
      <point x="380" y="44"/>
      <point x="467" y="172"/>
      <point x="507" y="321" type="curve" smooth="yes"/>
      <point x="523" y="380"/>
      <point x="531" y="439"/>
    </contour>
  </outline>
</glyph>
<glyph name="P" format="1">
  <advance width="567"/>
  <unicode hex="0050"/>
  <outline>
    <contour>
      <point x="595" y="550" type="curve" smooth="yes"/>
      <point x="595" y="403"/>
      <point x="473" y="306"/>
      <point x="304" y="306" type="curve" smooth="yes"/>
      <point x="167" y="306" type="line"/>
      <point x="91" y="0" type="line"/>
      <point x="19" y="0" type="line"/>
      <point x="199" y="720" type="line"/>
      <point x="386" y="720" type="line" smooth="yes"/>
      <point x="520" y="720"/>
      <point x="595" y="661"/>
    </contour>
    <contour>
      <point x="523" y="545" type="curve" smooth="yes"/>
      <point x="523" y="622"/>
      <point x="476" y="666"/>
      <point x="374" y="666" type="curve" smooth="yes"/>
      <point x="255" y="666" type="line"/>
      <point x="179" y="361" type="line"/>
      <point x="300" y="361" type="line" smooth="yes"/>
      <point x="434" y="361"/>
      <point x="523" y="430"/>
    </contour>
  </outline>
</glyph>
<glyph name="T" format="1">
  <advance width="557"/>
  <unicode hex="0054"/>
  <outline>
    <contour>
      <point x="652" y="720" type="line"/>
      <point x="637" y="661" type="line"/>
      <point x="414" y="661" type="line"/>
      <point x="250" y="0" type="line"/>
      <point x="178" y="0" type="line"/>
      <point x="343" y="661" type="line"/>
      <point x="119" y="661" type="line"/>
      <point x="134" y="720" type="line"/>
    </contour>
  </outline>
</glyph>
<glyph name="U" format="1">
  <advance width="621"/>
  <unicode hex="0055"/>
  <outline>
    <contour>
      <point x="656" y="720" type="line"/>
      <point x="535" y="231" type="line" smooth="yes"/>
      <point x="493" y="63"/>
      <point x="397" y="-12"/>
      <point x="274" y="-12" type="curve" smooth="yes"/>
      <point x="151" y="-12"/>
      <point x="69" y="49"/>
      <point x="69" y="171" type="curve" smooth="yes"/>
      <point x="69" y="205"/>
      <point x="74" y="240"/>
      <point x="82" y="274" type="curve" smooth="yes"/>
      <point x="193" y="720" type="line"/>
      <point x="265" y="720" type="line"/>
      <point x="154" y="274" type="line" smooth="yes"/>
      <point x="145" y="238"/>
      <point x="141" y="205"/>
      <point x="141" y="178" type="curve" smooth="yes"/>
      <point x="141" y="94"/>
      <point x="188" y="45"/>
      <point x="278" y="45" type="curve" smooth="yes"/>
      <point x="366" y="45"/>
      <point x="436" y="102"/>
      <point x="470" y="239" type="curve" smooth="yes"/>
      <point x="590" y="720" type="line"/>
    </contour>
  </outline>
</glyph>
<glyph name="V" format="1">
  <advance width="612"/>
  <unicode hex="0056"/>
  <outline>
    <contour>
      <point x="698" y="720" type="line"/>
      <point x="281" y="-7" type="line"/>
      <point x="198" y="-7" type="line"/>
      <point x="143" y="720" type="line"/>
      <point x="213" y="720" type="line"/>
      <point x="253" y="66" type="line"/>
      <point x="259" y="66" type="line"/>
      <point x="624" y="720" type="line"/>
    </contour>
  </outline>
</glyph>
<glyph name="W" format="1">
  <advance width="970"/>
  <unicode hex="0057"/>
  <outline>
    <contour>
      <point x="1031" y="720" type="line"/>
      <point x="658" y="-6" type="line"/>
      <point x="576" y="-6" type="line"/>
      <point x="572" y="636" type="line"/>
      <point x="563" y="636" type="line"/>
      <point x="239" y="-6" type="line"/>
      <point x="157" y="-6" type="line"/>
      <point x="147" y="720" type="line"/>
      <point x="217" y="720" type="line"/>
      <point x="215" y="75" type="line"/>
      <point x="222" y="75" type="line"/>
      <point x="540" y="720" type="line"/>
      <point x="631" y="720" type="line"/>
      <point x="632" y="75" type="line"/>
      <point x="639" y="75" type="line"/>
      <point x="956" y="720" type="line"/>
    </contour>
  </outline>
</glyph>
<glyph name="X" format="1">
  <advance width="618"/>
  <unicode hex="0058"/>
  <outline>
    <contour>
      <point x="688" y="720" type="line"/>
      <point x="374" y="370" type="line"/>
      <point x="524" y="0" type="line"/>
      <point x="448" y="0" type="line"/>
      <point x="324" y="318" type="line"/>
      <point x="43" y="0" type="line"/>
      <point x="-35" y="0" type="line"/>
      <point x="301" y="373" type="line"/>
      <point x="160" y="720" type="line"/>
      <point x="236" y="720" type="line"/>
      <point x="350" y="424" type="line"/>
      <point x="610" y="720" type="line"/>
    </contour>
  </outline>
</glyph>
<glyph name="Y" format="1">
  <advance width="612"/>
  <unicode hex="0059"/>
  <outline>
    <contour>
      <point x="710" y="720" type="line"/>
      <point x="347" y="278" type="line"/>
      <point x="278" y="0" type="line"/>
      <point x="207" y="0" type="line"/>
      <point x="275" y="277" type="line"/>
      <point x="133" y="720" type="line"/>
      <point x="208" y="720" type="line"/>
      <point x="326" y="337" type="line"/>
      <point x="635" y="720" type="line"/>
    </contour>
  </outline>
</glyph>
<glyph name="grave" format="1">
  <advance width="500"/>
  <unicode hex="0060"/>
  <outline>
    <contour>
      <point x="411" y="592" type="line"/>
      <point x="370" y="592" type="line"/>
      <point x="266" y="743" type="line"/>
      <point x="351" y="743" type="line"/>
    </contour>
  </outline>
</glyph>
<glyph name="c" format="1">
  <advance width="440"/>
  <unicode hex="0063"/>
  <outline>
    <contour>
      <point x="437" y="388" type="curve"/>
      <point x="377" y="375" type="line"/>
      <point x="368" y="440"/>
      <point x="345" y="479"/>
      <point x="287" y="479" type="curve" smooth="yes"/>
      <point x="204" y="479"/>
      <point x="144" y="393"/>
      <point x="115" y="284" type="curve" smooth="yes"/>
      <point x="104" y="243"/>
      <point x="98" y="205"/>
      <point x="98" y="168" type="curve" smooth="yes"/>
      <point x="98" y="166" type="line" smooth="yes"/>
      <point x="98" y="79"/>
      <point x="140" y="37"/>
      <point x="199" y="37" type="curve" smooth="yes"/>
      <point x="251" y="37"/>
      <point x="287" y="72"/>
      <point x="330" y="129" type="curve"/>
      <point x="379" y="104" type="line"/>
      <point x="329" y="33"/>
      <point x="271" y="-10"/>
      <point x="193" y="-10" type="curve" smooth="yes"/>
      <point x="102" y="-10"/>
      <point x="33" y="52"/>
      <point x="33" y="168" type="curve" smooth="yes"/>
      <point x="33" y="170" type="line" smooth="yes"/>
      <point x="33" y="205"/>
      <point x="38" y="244"/>
      <point x="47" y="281" type="curve" smooth="yes"/>
      <point x="81" y="414"/>
      <point x="165" y="527"/>
      <point x="294" y="527" type="curve" smooth="yes"/>
      <point x="383" y="527"/>
      <point x="426" y="471"/>
    </contour>
  </outline>
</glyph>
<glyph name="f" format="1">
  <advance width="324"/>
  <unicode hex="0066"/>
  <outline>
    <contour>
      <point x="460" y="739" type="curve"/>
      <point x="446" y="687" type="line"/>
      <point x="426" y="699"/>
      <point x="399" y="711"/>
      <point x="361" y="711" type="curve" smooth="yes"/>
      <point x="320" y="711"/>
      <point x="290" y="687"/>
      <point x="275" y="625" type="curve" smooth="yes"/>
      <point x="247" y="512" type="line"/>
      <point x="376" y="512" type="line"/>
      <point x="364" y="464" type="line"/>
      <point x="235" y="464" type="line"/>
      <point x="74" y="-188" type="line"/>
      <point x="7" y="-188" type="line"/>
      <point x="170" y="464" type="line"/>
      <point x="67" y="464" type="line"/>
      <point x="79" y="512" type="line"/>
      <point x="182" y="512" type="line"/>
      <point x="211" y="630" type="line" smooth="yes"/>
      <point x="233" y="721"/>
      <point x="283" y="759"/>
      <point x="363" y="759" type="curve" smooth="yes"/>
      <point x="402" y="759"/>
      <point x="436" y="750"/>
    </contour>
  </outline>
</glyph>
<glyph name="h" format="1">
  <advance width="489"/>
  <unicode hex="0068"/>
  <outline>
    <contour>
      <point x="460" y="433" type="curve" smooth="yes"/>
      <point x="460" y="415"/>
      <point x="457" y="390"/>
      <point x="451" y="367" type="curve" smooth="yes"/>
      <point x="360" y="0" type="line"/>
      <point x="293" y="0" type="line"/>
      <point x="382" y="355" type="line" smooth="yes"/>
      <point x="387" y="375"/>
      <point x="390" y="396"/>
      <point x="390" y="412" type="curve" smooth="yes"/>
      <point x="390" y="448"/>
      <point x="373" y="471"/>
      <point x="333" y="471" type="curve" smooth="yes"/>
      <point x="288" y="471"/>
      <point x="229" y="426"/>
      <point x="151" y="320" type="curve"/>
      <point x="72" y="0" type="line"/>
      <point x="5" y="0" type="line"/>
      <point x="189" y="738" type="line"/>
      <point x="261" y="761" type="line"/>
      <point x="166" y="381" type="line"/>
      <point x="172" y="381" type="line"/>
      <point x="244" y="471"/>
      <point x="299" y="522"/>
      <point x="369" y="522" type="curve" smooth="yes"/>
      <point x="430" y="522"/>
      <point x="460" y="487"/>
    </contour>
  </outline>
</glyph>
<glyph name="l" format="1">
  <advance width="224"/>
  <unicode hex="006C"/>
  <outline>
    <contour>
      <point x="269" y="761" type="line"/>
      <point x="81" y="0" type="line"/>
      <point x="14" y="0" type="line"/>
      <point x="198" y="738" type="line"/>
    </contour>
  </outline>
</glyph>
<glyph name="m" format="1">
  <advance width="773"/>
  <unicode hex="006D"/>
  <outline>
    <contour>
      <point x="744" y="433" type="curve" smooth="yes"/>
      <point x="744" y="415"/>
      <point x="741" y="390"/>
      <point x="735" y="367" type="curve" smooth="yes"/>
      <point x="644" y="0" type="line"/>
      <point x="577" y="0" type="line"/>
      <point x="666" y="355" type="line" smooth="yes"/>
      <point x="671" y="375"/>
      <point x="674" y="396"/>
      <point x="674" y="412" type="curve" smooth="yes"/>
      <point x="674" y="448"/>
      <point x="658" y="471"/>
      <point x="618" y="471" type="curve" smooth="yes"/>
      <point x="573" y="471"/>
      <point x="515" y="427"/>
      <point x="437" y="320" type="curve"/>
      <point x="358" y="0" type="line"/>
      <point x="291" y="0" type="line"/>
      <point x="380" y="355" type="line" smooth="yes"/>
      <point x="385" y="375"/>
      <point x="388" y="396"/>
      <point x="388" y="412" type="curve" smooth="yes"/>
      <point x="388" y="448"/>
      <point x="372" y="471"/>
      <point x="332" y="471" type="curve" smooth="yes"/>
      <point x="287" y="471"/>
      <point x="229" y="426"/>
      <point x="151" y="320" type="curve"/>
      <point x="72" y="0" type="line"/>
      <point x="5" y="0" type="line"/>
      <point x="131" y="503" type="line"/>
      <point x="202" y="526" type="line"/>
      <point x="166" y="381" type="line"/>
      <point x="172" y="381" type="line"/>
      <point x="244" y="471"/>
      <point x="298" y="522"/>
      <point x="368" y="522" type="curve" smooth="yes"/>
      <point x="429" y="522"/>
      <point x="458" y="487"/>
      <point x="458" y="433" type="curve" smooth="yes"/>
      <point x="458" y="419"/>
      <point x="456" y="400"/>
      <point x="451" y="381" type="curve"/>
      <point x="458" y="381" type="line"/>
      <point x="530" y="471"/>
      <point x="584" y="522"/>
      <point x="654" y="522" type="curve" smooth="yes"/>
      <point x="715" y="522"/>
      <point x="744" y="487"/>
    </contour>
  </outline>
</glyph>
<glyph name="n" format="1">
  <advance width="489"/>
  <unicode hex="006E"/>
  <outline>
    <contour>
      <point x="460" y="433" type="curve" smooth="yes"/>
      <point x="460" y="415"/>
      <point x="457" y="390"/>
      <point x="451" y="367" type="curve" smooth="yes"/>
      <point x="360" y="0" type="line"/>
      <point x="293" y="0" type="line"/>
      <point x="382" y="355" type="line" smooth="yes"/>
      <point x="387" y="375"/>
      <point x="390" y="396"/>
      <point x="390" y="412" type="curve" smooth="yes"/>
      <point x="390" y="448"/>
      <point x="373" y="471"/>
      <point x="333" y="471" type="curve" smooth="yes"/>
      <point x="288" y="471"/>
      <point x="229" y="426"/>
      <point x="151" y="320" type="curve"/>
      <point x="72" y="0" type="line"/>
      <point x="5" y="0" type="line"/>
      <point x="131" y="503" type="line"/>
      <point x="202" y="526" type="line"/>
      <point x="166" y="381" type="line"/>
      <point x="172" y="381" type="line"/>
      <point x="244" y="471"/>
      <point x="299" y="522"/>
      <point x="369" y="522" type="curve" smooth="yes"/>
      <point x="430" y="522"/>
      <point x="460" y="487"/>
    </contour>
  </outline>
</glyph>
<glyph name="r" format="1">
  <advance width="368"/>
  <unicode hex="0072"/>
  <outline>
    <contour>
      <point x="417" y="526" type="curve"/>
      <point x="399" y="456" type="line"/>
      <point x="312" y="448"/>
      <point x="226" y="377"/>
      <point x="139" y="271" type="curve"/>
      <point x="72" y="0" type="line"/>
      <point x="5" y="0" type="line"/>
      <point x="131" y="503" type="line"/>
      <point x="202" y="526" type="line"/>
      <point x="153" y="327" type="line"/>
      <point x="158" y="327" type="line"/>
      <point x="254" y="454"/>
      <point x="335" y="524"/>
    </contour>
  </outline>
</glyph>
<glyph name="s" format="1">
  <advance width="403"/>
  <unicode hex="0073"/>
  <outline>
    <contour>
      <point x="401" y="459" type="curve"/>
      <point x="361" y="421" type="line"/>
      <point x="325" y="460"/>
      <point x="283" y="481"/>
      <point x="238" y="481" type="curve" smooth="yes"/>
      <point x="179" y="481"/>
      <point x="139" y="444"/>
      <point x="139" y="392" type="curve" smooth="yes"/>
      <point x="139" y="350"/>
      <point x="159" y="324"/>
      <point x="227" y="291" type="curve" smooth="yes"/>
      <point x="307" y="252"/>
      <point x="344" y="213"/>
      <point x="344" y="148" type="curve" smooth="yes"/>
      <point x="344" y="56"/>
      <point x="269" y="-9"/>
      <point x="168" y="-9" type="curve" smooth="yes"/>
      <point x="89" y="-9"/>
      <point x="32" y="20"/>
      <point x="-14" y="67" type="curve"/>
      <point x="25" y="106" type="line"/>
      <point x="64" y="62"/>
      <point x="111" y="35"/>
      <point x="172" y="35" type="curve" smooth="yes"/>
      <point x="239" y="35"/>
      <point x="282" y="79"/>
      <point x="282" y="137" type="curve" smooth="yes"/>
      <point x="282" y="184"/>
      <point x="259" y="207"/>
      <point x="188" y="243" type="curve" smooth="yes"/>
      <point x="112" y="282"/>
      <point x="78" y="320"/>
      <point x="78" y="383" type="curve" smooth="yes"/>
      <point x="78" y="464"/>
      <point x="144" y="526"/>
      <point x="243" y="526" type="curve" smooth="yes"/>
      <point x="308" y="526"/>
      <point x="360" y="500"/>
    </contour>
  </outline>
</glyph>
<glyph name="u" format="1">
  <advance width="489"/>
  <unicode hex="0075"/>
  <outline>
    <contour>
      <point x="484" y="517" type="line"/>
      <point x="358" y="13" type="line"/>
      <point x="287" y="-9" type="line"/>
      <point x="323" y="136" type="line"/>
      <point x="317" y="136" type="line"/>
      <point x="245" y="46"/>
      <point x="190" y="-5"/>
      <point x="120" y="-5" type="curve" smooth="yes"/>
      <point x="59" y="-5"/>
      <point x="29" y="29"/>
      <point x="29" y="84" type="curve" smooth="yes"/>
      <point x="29" y="101"/>
      <point x="32" y="126"/>
      <point x="38" y="150" type="curve" smooth="yes"/>
      <point x="129" y="517" type="line"/>
      <point x="196" y="517" type="line"/>
      <point x="107" y="162" type="line" smooth="yes"/>
      <point x="102" y="142"/>
      <point x="99" y="120"/>
      <point x="99" y="105" type="curve" smooth="yes"/>
      <point x="99" y="68"/>
      <point x="116" y="46"/>
      <point x="156" y="46" type="curve" smooth="yes"/>
      <point x="201" y="46"/>
      <point x="260" y="91"/>
      <point x="338" y="196" type="curve"/>
      <point x="417" y="517" type="line"/>
    </contour>
  </outline>
</glyph>
<glyph name="x" format="1">
  <advance width="464"/>
  <unicode hex="0078"/>
  <outline>
    <contour>
      <point x="492" y="517" type="line"/>
      <point x="265" y="262" type="line"/>
      <point x="370" y="0" type="line"/>
      <point x="302" y="0" type="line"/>
      <point x="221" y="217" type="line"/>
      <point x="37" y="0" type="line"/>
      <point x="-35" y="0" type="line"/>
      <point x="200" y="264" type="line"/>
      <point x="99" y="517" type="line"/>
      <point x="167" y="517" type="line"/>
      <point x="244" y="308" type="line"/>
      <point x="421" y="517" type="line"/>
    </contour>
  </outline>
</glyph>
<glyph name="z" format="1">
  <advance width="414"/>
  <unicode hex="007A"/>
  <outline>
    <contour>
      <point x="445" y="513" type="line"/>
      <point x="435" y="471" type="line"/>
      <point x="54" y="48" type="line"/>
      <point x="330" y="48" type="line"/>
      <point x="318" y="0" type="line"/>
      <point x="-34" y="0" type="line"/>
      <point x="-23" y="42" type="line"/>
      <point x="357" y="464" type="line"/>
      <point x="96" y="464" type="line"/>
      <point x="109" y="513" type="line"/>
    </contour>
  </outline>
</glyph>
<glyph name="braceleft" format="1">
  <advance width="383"/>
  <unicode hex="007B"/>
  <outline>
    <contour>
      <point x="464" y="720" type="line"/>
      <point x="455" y="681" type="line"/>
      <point x="388" y="681" type="line" smooth="yes"/>
      <point x="330" y="681"/>
      <point x="298" y="656"/>
      <point x="286" y="610" type="curve" smooth="yes"/>
      <point x="273" y="559"/>
      <point x="279" y="499"/>
      <point x="266" y="447" type="curve" smooth="yes"/>
      <point x="247" y="369"/>
      <point x="201" y="344"/>
      <point x="130" y="323" type="curve"/>
      <point x="128" y="315" type="line"/>
      <point x="182" y="298"/>
      <point x="206" y="276"/>
      <point x="206" y="228" type="curve" smooth="yes"/>
      <point x="206" y="160"/>
      <point x="140" y="71"/>
      <point x="140" y="10" type="curve" smooth="yes"/>
      <point x="140" y="-22"/>
      <point x="162" y="-41"/>
      <point x="208" y="-41" type="curve" smooth="yes"/>
      <point x="274" y="-41" type="line"/>
      <point x="264" y="-80" type="line"/>
      <point x="183" y="-80" type="line" smooth="yes"/>
      <point x="113" y="-80"/>
      <point x="76" y="-53"/>
      <point x="76" y="3" type="curve" smooth="yes"/>
      <point x="76" y="81"/>
      <point x="144" y="164"/>
      <point x="144" y="228" type="curve" smooth="yes"/>
      <point x="144" y="273"/>
      <point x="108" y="300"/>
      <point x="34" y="300" type="curve"/>
      <point x="43" y="340" type="line"/>
      <point x="118" y="340"/>
      <point x="181" y="368"/>
      <point x="199" y="439" type="curve" smooth="yes"/>
      <point x="210" y="485"/>
      <point x="208" y="559"/>
      <point x="221" y="610" type="curve" smooth="yes"/>
      <point x="239" y="684"/>
      <point x="288" y="720"/>
      <point x="378" y="720" type="curve" smooth="yes"/>
    </contour>
  </outline>
</glyph>
<glyph name="bar" format="1">
  <advance width="236"/>
  <unicode hex="007C"/>
  <outline>
    <contour>
      <point x="272" y="762" type="line"/>
      <point x="36" y="-188" type="line"/>
      <point x="-23" y="-188" type="line"/>
      <point x="213" y="762" type="line"/>
    </contour>
  </outline>
</glyph>
<glyph name="braceright" format="1">
  <advance width="383"/>
  <unicode hex="007D"/>
  <outline>
    <contour>
      <point x="379" y="340" type="curve"/>
      <point x="370" y="300" type="line"/>
      <point x="295" y="300"/>
      <point x="232" y="272"/>
      <point x="214" y="201" type="curve" smooth="yes"/>
      <point x="203" y="155"/>
      <point x="205" y="81"/>
      <point x="192" y="30" type="curve" smooth="yes"/>
      <point x="174" y="-44"/>
      <point x="126" y="-80"/>
      <point x="36" y="-80" type="curve" smooth="yes"/>
      <point x="-51" y="-80" type="line"/>
      <point x="-41" y="-41" type="line"/>
      <point x="25" y="-41" type="line" smooth="yes"/>
      <point x="83" y="-41"/>
      <point x="115" y="-16"/>
      <point x="127" y="30" type="curve" smooth="yes"/>
      <point x="140" y="81"/>
      <point x="134" y="141"/>
      <point x="147" y="193" type="curve" smooth="yes"/>
      <point x="166" y="271"/>
      <point x="212" y="296"/>
      <point x="283" y="317" type="curve"/>
      <point x="285" y="325" type="line"/>
      <point x="231" y="342"/>
      <point x="207" y="364"/>
      <point x="207" y="412" type="curve" smooth="yes"/>
      <point x="207" y="480"/>
      <point x="274" y="569"/>
      <point x="274" y="630" type="curve" smooth="yes"/>
      <point x="274" y="662"/>
      <point x="251" y="681"/>
      <point x="206" y="681" type="curve" smooth="yes"/>
      <point x="139" y="681" type="line"/>
      <point x="149" y="720" type="line"/>
      <point x="230" y="720" type="line" smooth="yes"/>
      <point x="301" y="720"/>
      <point x="337" y="693"/>
      <point x="337" y="637" type="curve" smooth="yes"/>
      <point x="337" y="559"/>
      <point x="269" y="476"/>
      <point x="269" y="412" type="curve" smooth="yes"/>
      <point x="269" y="367"/>
      <point x="305" y="340"/>
    </contour>
  </outline>
</glyph>
<glyph name="sterling" format="1">
  <advance width="571"/>
  <unicode hex="00A3"/>
  <outline>
    <contour>
      <point x="607" y="604" type="curve"/>
      <point x="548" y="575" type="line"/>
      <point x="512" y="642"/>
      <point x="475" y="677"/>
      <point x="395" y="677" type="curve" smooth="yes"/>
      <point x="295" y="677"/>
      <point x="244" y="602"/>
      <point x="244" y="486" type="curve" smooth="yes"/>
      <point x="244" y="470"/>
      <point x="244" y="425"/>
      <point x="244" y="380" type="curve"/>
      <point x="435" y="380" type="line"/>
      <point x="423" y="335" type="line"/>
      <point x="244" y="335" type="line"/>
      <point x="244" y="330"/>
      <point x="244" y="325"/>
      <point x="244" y="320" type="curve" smooth="yes"/>
      <point x="244" y="235"/>
      <point x="227" y="167"/>
      <point x="194" y="115" type="curve"/>
      <point x="238" y="73"/>
      <point x="279" y="50"/>
      <point x="328" y="50" type="curve" smooth="yes"/>
      <point x="387" y="50"/>
      <point x="426" y="82"/>
      <point x="467" y="173" type="curve"/>
      <point x="517" y="154" type="line"/>
      <point x="469" y="38"/>
      <point x="409" y="-6"/>
      <point x="327" y="-6" type="curve" smooth="yes"/>
      <point x="260" y="-6"/>
      <point x="212" y="24"/>
      <point x="159" y="72" type="curve"/>
      <point x="117" y="32"/>
      <point x="61" y="6"/>
      <point x="-10" y="-6" type="curve"/>
      <point x="4" y="49" type="line"/>
      <point x="115" y="79"/>
      <point x="178" y="158"/>
      <point x="178" y="305" type="curve" smooth="yes"/>
      <point x="178" y="314"/>
      <point x="178" y="324"/>
      <point x="178" y="335" type="curve"/>
      <point x="57" y="335" type="line"/>
      <point x="69" y="380" type="line"/>
      <point x="178" y="380" type="line"/>
      <point x="178" y="419"/>
      <point x="178" y="457"/>
      <point x="178" y="477" type="curve" smooth="yes"/>
      <point x="178" y="631"/>
      <point x="254" y="731"/>
      <point x="400" y="731" type="curve" smooth="yes"/>
      <point x="514" y="731"/>
      <point x="570" y="680"/>
    </contour>
  </outline>
</glyph>
<glyph name="yen" format="1">
  <advance width="610"/>
  <unicode hex="00A5"/>
  <outline>
    <contour>
      <point x="703" y="720" type="line"/>
      <point x="428" y="382" type="line"/>
      <point x="570" y="382" type="line"/>
      <point x="558" y="338" type="line"/>
      <point x="392" y="338" type="line"/>
      <point x="343" y="278" type="line"/>
      <point x="324" y="199" type="line"/>
      <point x="524" y="199" type="line"/>
      <point x="512" y="154" type="line"/>
      <point x="313" y="154" type="line"/>
      <point x="275" y="0" type="line"/>
      <point x="207" y="0" type="line"/>
      <point x="245" y="154" type="line"/>
      <point x="45" y="154" type="line"/>
      <point x="57" y="199" type="line"/>
      <point x="256" y="199" type="line"/>
      <point x="276" y="277" type="line"/>
      <point x="257" y="338" type="line"/>
      <point x="91" y="338" type="line"/>
      <point x="102" y="382" type="line"/>
      <point x="243" y="382" type="line"/>
      <point x="138" y="720" type="line"/>
      <point x="211" y="720" type="line"/>
      <point x="322" y="333" type="line"/>
      <point x="626" y="720" type="line"/>
    </contour>
  </outline>
</glyph>
<glyph name="section" format="1">
  <advance width="579"/>
  <unicode hex="00A7"/>
  <outline>
    <contour>
      <point x="587" y="664" type="curve"/>
      <point x="551" y="616" type="line"/>
      <point x="500" y="654"/>
      <point x="429" y="679"/>
      <point x="363" y="679" type="curve" smooth="yes"/>
      <point x="291" y="679"/>
      <point x="253" y="652"/>
      <point x="253" y="606" type="curve" smooth="yes"/>
      <point x="253" y="566"/>
      <point x="287" y="540"/>
      <point x="396" y="499" type="curve" smooth="yes"/>
      <point x="521" y="453"/>
      <point x="566" y="410"/>
      <point x="566" y="352" type="curve" smooth="yes"/>
      <point x="566" y="276"/>
      <point x="489" y="217"/>
      <point x="366" y="224" type="curve"/>
      <point x="364" y="218" type="line"/>
      <point x="416" y="190"/>
      <point x="444" y="161"/>
      <point x="444" y="112" type="curve" smooth="yes"/>
      <point x="444" y="37"/>
      <point x="372" y="-12"/>
      <point x="263" y="-12" type="curve" smooth="yes"/>
      <point x="175" y="-12"/>
      <point x="102" y="15"/>
      <point x="42" y="56" type="curve"/>
      <point x="78" y="104" type="line"/>
      <point x="129" y="66"/>
      <point x="200" y="41"/>
      <point x="266" y="41" type="curve" smooth="yes"/>
      <point x="337" y="41"/>
      <point x="376" y="68"/>
      <point x="376" y="114" type="curve" smooth="yes"/>
      <point x="376" y="154"/>
      <point x="341" y="180"/>
      <point x="232" y="221" type="curve" smooth="yes"/>
      <point x="108" y="267"/>
      <point x="63" y="310"/>
      <point x="63" y="368" type="curve" smooth="yes"/>
      <point x="63" y="444"/>
      <point x="140" y="503"/>
      <point x="263" y="496" type="curve"/>
      <point x="265" y="502" type="line"/>
      <point x="213" y="530"/>
      <point x="185" y="559"/>
      <point x="185" y="608" type="curve" smooth="yes"/>
      <point x="185" y="683"/>
      <point x="257" y="732"/>
      <point x="365" y="732" type="curve" smooth="yes"/>
      <point x="453" y="732"/>
      <point x="527" y="705"/>
    </contour>
    <contour>
      <point x="499" y="340" type="curve" smooth="yes"/>
      <point x="499" y="373"/>
      <point x="477" y="405"/>
      <point x="391" y="441" type="curve" smooth="yes"/>
      <point x="356" y="455"/>
      <point x="304" y="467"/>
      <point x="261" y="467" type="curve" smooth="yes"/>
      <point x="183" y="467"/>
      <point x="130" y="431"/>
      <point x="130" y="380" type="curve" smooth="yes"/>
      <point x="130" y="347"/>
      <point x="152" y="315"/>
      <point x="238" y="279" type="curve" smooth="yes"/>
      <point x="273" y="265"/>
      <point x="325" y="253"/>
      <point x="368" y="253" type="curve" smooth="yes"/>
      <point x="446" y="253"/>
      <point x="499" y="289"/>
    </contour>
  </outline>
</glyph>
<glyph name="dieresis" format="1">
  <advance width="500"/>
  <unicode hex="00A8"/>
  <outline>
    <contour>
      <point x="479" y="679" type="line"/>
      <point x="458" y="592" type="line"/>
      <point x="385" y="592" type="line"/>
      <point x="406" y="679" type="line"/>
    </contour>
    <contour>
      <point x="301" y="679" type="line"/>
      <point x="280" y="592" type="line"/>
      <point x="207" y="592" type="line"/>
      <point x="228" y="679" type="line"/>
    </contour>
  </outline>
</glyph>
<glyph name="ordfeminine" format="1">
  <advance width="378"/>
  <unicode hex="00AA"/>
  <outline>
    <contour>
      <point x="390" y="654" type="curve" smooth="yes"/>
      <point x="390" y="641"/>
      <point x="387" y="625"/>
      <point x="383" y="609" type="curve" smooth="yes"/>
      <point x="342" y="448" type="line" smooth="yes"/>
      <point x="340" y="442"/>
      <point x="340" y="435"/>
      <point x="340" y="429" type="curve" smooth="yes"/>
      <point x="340" y="415"/>
      <point x="349" y="406"/>
      <point x="371" y="403" type="curve"/>
      <point x="364" y="373" type="line"/>
      <point x="315" y="376"/>
      <point x="291" y="398"/>
      <point x="290" y="431" type="curve"/>
      <point x="246" y="388"/>
      <point x="211" y="371"/>
      <point x="169" y="371" type="curve" smooth="yes"/>
      <point x="123" y="371"/>
      <point x="89" y="399"/>
      <point x="89" y="448" type="curve" smooth="yes"/>
      <point x="89" y="527"/>
      <point x="160" y="582"/>
      <point x="326" y="582" type="curve"/>
      <point x="333" y="611" type="line" smooth="yes"/>
      <point x="336" y="625"/>
      <point x="339" y="635"/>
      <point x="339" y="644" type="curve" smooth="yes"/>
      <point x="339" y="673"/>
      <point x="318" y="686"/>
      <point x="277" y="686" type="curve" smooth="yes"/>
      <point x="243" y="686"/>
      <point x="211" y="677"/>
      <point x="172" y="659" type="curve"/>
      <point x="161" y="696" type="line"/>
      <point x="203" y="715"/>
      <point x="242" y="725"/>
      <point x="288" y="725" type="curve" smooth="yes"/>
      <point x="356" y="725"/>
      <point x="390" y="699"/>
    </contour>
    <contour>
      <point x="335" y="294" type="line"/>
      <point x="325" y="257" type="line"/>
      <point x="50" y="257" type="line"/>
      <point x="60" y="294" type="line"/>
    </contour>
    <contour>
      <point x="319" y="555" type="line"/>
      <point x="180" y="554"/>
      <point x="138" y="508"/>
      <point x="138" y="456" type="curve" smooth="yes"/>
      <point x="138" y="425"/>
      <point x="159" y="407"/>
      <point x="192" y="407" type="curve" smooth="yes"/>
      <point x="219" y="407"/>
      <point x="257" y="426"/>
      <point x="297" y="468" type="curve"/>
    </contour>
  </outline>
</glyph>
<glyph name="acute" format="1">
  <advance width="500"/>
  <unicode hex="00B4"/>
  <outline>
    <contour>
      <point x="467" y="743" type="line"/>
      <point x="298" y="592" type="line"/>
      <point x="250" y="592" type="line"/>
      <point x="374" y="743" type="line"/>
    </contour>
  </outline>
</glyph>
<glyph name="paragraph" format="1">
  <advance width="528"/>
  <unicode hex="00B6"/>
  <outline>
    <contour>
      <point x="558" y="720" type="line"/>
      <point x="379" y="0" type="line"/>
      <point x="333" y="0" type="line"/>
      <point x="501" y="678" type="line"/>
      <point x="401" y="678" type="line"/>
      <point x="233" y="0" type="line"/>
      <point x="186" y="0" type="line"/>
      <point x="275" y="363" type="line"/>
      <point x="174" y="375"/>
      <point x="103" y="422"/>
      <point x="103" y="523" type="curve" smooth="yes"/>
      <point x="103" y="635"/>
      <point x="194" y="720"/>
      <point x="356" y="720" type="curve" smooth="yes"/>
    </contour>
  </outline>
</glyph>
<glyph name="ordmasculine" format="1">
  <advance width="378"/>
  <unicode hex="00BA"/>
  <outline>
    <contour>
      <point x="397" y="604" type="curve" smooth="yes"/>
      <point x="397" y="491"/>
      <point x="330" y="369"/>
      <point x="220" y="369" type="curve" smooth="yes"/>
      <point x="153" y="369"/>
      <point x="103" y="411"/>
      <point x="103" y="492" type="curve" smooth="yes"/>
      <point x="103" y="605"/>
      <point x="170" y="727"/>
      <point x="280" y="727" type="curve" smooth="yes"/>
      <point x="347" y="727"/>
      <point x="397" y="686"/>
    </contour>
    <contour>
      <point x="330" y="294" type="line"/>
      <point x="321" y="257" type="line"/>
      <point x="56" y="257" type="line"/>
      <point x="65" y="294" type="line"/>
    </contour>
    <contour>
      <point x="346" y="605" type="curve" smooth="yes"/>
      <point x="346" y="663"/>
      <point x="319" y="690"/>
      <point x="279" y="690" type="curve" smooth="yes"/>
      <point x="200" y="690"/>
      <point x="154" y="580"/>
      <point x="154" y="492" type="curve" smooth="yes"/>
      <point x="154" y="433"/>
      <point x="181" y="406"/>
      <point x="221" y="406" type="curve" smooth="yes"/>
      <point x="300" y="406"/>
      <point x="346" y="516"/>
    </contour>
  </outline>
</glyph>
<glyph name="AE" format="1">
  <advance width="916"/>
  <unicode hex="00C6"/>
  <outline>
    <contour>
      <point x="979" y="720" type="line"/>
      <point x="965" y="663" type="line"/>
      <point x="632" y="663" type="line"/>
      <point x="567" y="404" type="line"/>
      <point x="842" y="404" type="line"/>
      <point x="829" y="349" type="line"/>
      <point x="554" y="349" type="line"/>
      <point x="481" y="57" type="line"/>
      <point x="826" y="57" type="line"/>
      <point x="812" y="0" type="line"/>
      <point x="397" y="0" type="line"/>
      <point x="445" y="192" type="line"/>
      <point x="173" y="192" type="line"/>
      <point x="25" y="0" type="line"/>
      <point x="-52" y="0" type="line"/>
      <point x="506" y="720" type="line"/>
    </contour>
    <contour>
      <point x="563" y="663" type="line"/>
      <point x="535" y="663" type="line"/>
      <point x="210" y="244" type="line"/>
      <point x="458" y="244" type="line"/>
    </contour>
  </outline>
</glyph>
<glyph name="multiply" format="1">
  <advance width="600"/>
  <unicode hex="00D7"/>
  <outline>
    <contour>
      <point x="554" y="168" type="line"/>
      <point x="512" y="125" type="line"/>
      <point x="324" y="316" type="line"/>
      <point x="137" y="125" type="line"/>
      <point x="95" y="168" type="line"/>
      <point x="285" y="355" type="line"/>
      <point x="95" y="542" type="line"/>
      <point x="137" y="585" type="line"/>
      <point x="324" y="394" type="line"/>
      <point x="512" y="585" type="line"/>
      <point x="554" y="542" type="line"/>
      <point x="364" y="355" type="line"/>
    </contour>
  </outline>
</glyph>
<glyph name="Thorn" format="1">
  <advance width="567"/>
  <unicode hex="00DE"/>
  <outline>
    <contour>
      <point x="559" y="407" type="curve" smooth="yes"/>
      <point x="559" y="259"/>
      <point x="438" y="163"/>
      <point x="268" y="163" type="curve" smooth="yes"/>
      <point x="131" y="163" type="line"/>
      <point x="91" y="0" type="line"/>
      <point x="19" y="0" type="line"/>
      <point x="199" y="720" type="line"/>
      <point x="270" y="720" type="line"/>
      <point x="234" y="577" type="line"/>
      <point x="350" y="577" type="line" smooth="yes"/>
      <point x="484" y="577"/>
      <point x="559" y="518"/>
    </contour>
    <contour>
      <point x="488" y="402" type="curve" smooth="yes"/>
      <point x="488" y="479"/>
      <point x="440" y="523"/>
      <point x="338" y="523" type="curve" smooth="yes"/>
      <point x="219" y="523" type="line"/>
      <point x="143" y="218" type="line"/>
      <point x="264" y="218" type="line" smooth="yes"/>
      <point x="398" y="218"/>
      <point x="488" y="286"/>
    </contour>
  </outline>
</glyph>
<glyph name="germandbls" format="1">
  <advance width="568"/>
  <unicode hex="00DF"/>
  <outline>
    <contour>
      <point x="549" y="621" type="curve" smooth="yes"/>
      <point x="549" y="507"/>
      <point x="458" y="444"/>
      <point x="375" y="414" type="curve"/>
      <point x="373" y="406" type="line"/>
      <point x="456" y="376"/>
      <point x="516" y="303"/>
      <point x="516" y="209" type="curve" smooth="yes"/>
      <point x="516" y="74"/>
      <point x="415" y="-9"/>
      <point x="299" y="-9" type="curve" smooth="yes"/>
      <point x="236" y="-9"/>
      <point x="189" y="9"/>
      <point x="153" y="38" type="curve"/>
      <point x="180" y="79" type="line"/>
      <point x="213" y="54"/>
      <point x="246" y="39"/>
      <point x="295" y="39" type="curve" smooth="yes"/>
      <point x="381" y="39"/>
      <point x="449" y="105"/>
      <point x="449" y="208" type="curve" smooth="yes"/>
      <point x="449" y="300"/>
      <point x="390" y="372"/>
      <point x="269" y="391" type="curve"/>
      <point x="280" y="435" type="line"/>
      <point x="392" y="438"/>
      <point x="483" y="518"/>
      <point x="483" y="610" type="curve" smooth="yes"/>
      <point x="483" y="675"/>
      <point x="439" y="711"/>
      <point x="372" y="711" type="curve" smooth="yes"/>
      <point x="293" y="711"/>
      <point x="237" y="666"/>
      <point x="212" y="565" type="curve" smooth="yes"/>
      <point x="25" y="-188" type="line"/>
      <point x="-42" y="-188" type="line"/>
      <point x="145" y="563" type="line" smooth="yes"/>
      <point x="179" y="698"/>
      <point x="256" y="759"/>
      <point x="381" y="759" type="curve" smooth="yes"/>
      <point x="481" y="759"/>
      <point x="549" y="706"/>
    </contour>
  </outline>
</glyph>
<glyph name="ae" format="1">
  <advance width="751"/>
  <unicode hex="00E6"/>
  <outline>
    <contour>
      <point x="725" y="358" type="curve" smooth="yes"/>
      <point x="725" y="324"/>
      <point x="718" y="281"/>
      <point x="709" y="246" type="curve"/>
      <point x="399" y="246" type="line"/>
      <point x="394" y="223"/>
      <point x="393" y="199"/>
      <point x="393" y="174" type="curve" smooth="yes"/>
      <point x="393" y="172" type="line" smooth="yes"/>
      <point x="393" y="88"/>
      <point x="430" y="39"/>
      <point x="496" y="39" type="curve" smooth="yes"/>
      <point x="548" y="39"/>
      <point x="590" y="63"/>
      <point x="639" y="100" type="curve"/>
      <point x="659" y="58" type="line"/>
      <point x="606" y="16"/>
      <point x="557" y="-10"/>
      <point x="487" y="-10" type="curve" smooth="yes"/>
      <point x="414" y="-10"/>
      <point x="361" y="30"/>
      <point x="340" y="98" type="curve"/>
      <point x="334" y="98" type="line"/>
      <point x="246" y="17"/>
      <point x="191" y="-8"/>
      <point x="123" y="-8" type="curve" smooth="yes"/>
      <point x="58" y="-8"/>
      <point x="9" y="32"/>
      <point x="9" y="102" type="curve" smooth="yes"/>
      <point x="9" y="220"/>
      <point x="117" y="306"/>
      <point x="349" y="305" type="curve"/>
      <point x="363" y="358" type="line" smooth="yes"/>
      <point x="368" y="376"/>
      <point x="369" y="391"/>
      <point x="369" y="404" type="curve" smooth="yes"/>
      <point x="369" y="452"/>
      <point x="341" y="473"/>
      <point x="281" y="473" type="curve" smooth="yes"/>
      <point x="231" y="473"/>
      <point x="199" y="463"/>
      <point x="134" y="436" type="curve"/>
      <point x="124" y="481" type="line"/>
      <point x="187" y="508"/>
      <point x="232" y="523"/>
      <point x="294" y="523" type="curve" smooth="yes"/>
      <point x="377" y="523"/>
      <point x="413" y="493"/>
      <point x="418" y="427" type="curve"/>
      <point x="423" y="427" type="line"/>
      <point x="467" y="487"/>
      <point x="523" y="527"/>
      <point x="587" y="527" type="curve" smooth="yes"/>
      <point x="691" y="527"/>
      <point x="725" y="443"/>
    </contour>
    <contour>
      <point x="663" y="358" type="curve" smooth="yes"/>
      <point x="663" y="425"/>
      <point x="644" y="482"/>
      <point x="581" y="482" type="curve" smooth="yes"/>
      <point x="507" y="482"/>
      <point x="435" y="398"/>
      <point x="407" y="285" type="curve"/>
      <point x="654" y="285" type="line"/>
      <point x="660" y="313"/>
      <point x="663" y="335"/>
    </contour>
    <contour>
      <point x="341" y="271" type="curve"/>
      <point x="142" y="272"/>
      <point x="75" y="194"/>
      <point x="75" y="113" type="curve" smooth="yes"/>
      <point x="75" y="65"/>
      <point x="107" y="37"/>
      <point x="153" y="37" type="curve" smooth="yes"/>
      <point x="197" y="37"/>
      <point x="246" y="56"/>
      <point x="331" y="140" type="curve"/>
      <point x="330" y="148"/>
      <point x="329" y="159"/>
      <point x="329" y="168" type="curve" smooth="yes"/>
      <point x="329" y="170" type="line" smooth="yes"/>
      <point x="329" y="204"/>
      <point x="333" y="238"/>
    </contour>
  </outline>
</glyph>
<glyph name="divide" format="1">
  <advance width="600"/>
  <unicode hex="00F7"/>
  <outline>
    <contour>
      <point x="375" y="557" type="curve" smooth="yes"/>
      <point x="375" y="528"/>
      <point x="353" y="507"/>
      <point x="324" y="507" type="curve" smooth="yes"/>
      <point x="295" y="507"/>
      <point x="274" y="528"/>
      <point x="274" y="557" type="curve" smooth="yes"/>
      <point x="274" y="586"/>
      <point x="295" y="608"/>
      <point x="324" y="608" type="curve" smooth="yes"/>
      <point x="353" y="608"/>
      <point x="375" y="586"/>
    </contour>
    <contour>
      <point x="579" y="325" type="line"/>
      <point x="70" y="325" type="line"/>
      <point x="70" y="385" type="line"/>
      <point x="579" y="385" type="line"/>
    </contour>
    <contour>
      <point x="375" y="153" type="curve" smooth="yes"/>
      <point x="375" y="124"/>
      <point x="353" y="102"/>
      <point x="324" y="102" type="curve" smooth="yes"/>
      <point x="295" y="102"/>
      <point x="274" y="124"/>
      <point x="274" y="153" type="curve" smooth="yes"/>
      <point x="274" y="182"/>
      <point x="295" y="203"/>
      <point x="324" y="203" type="curve" smooth="yes"/>
      <point x="353" y="203"/>
      <point x="375" y="182"/>
    </contour>
  </outline>
</glyph>
<glyph name="oslash" format="1">
  <advance width="484"/>
  <unicode hex="00F8"/>
  <outline>
    <contour>
      <point x="532" y="612" type="line"/>
      <point x="420" y="465" type="line"/>
      <point x="440" y="436"/>
      <point x="451" y="397"/>
      <point x="451" y="348" type="curve" smooth="yes"/>
      <point x="451" y="346" type="line" smooth="yes"/>
      <point x="451" y="313"/>
      <point x="447" y="276"/>
      <point x="438" y="240" type="curve" smooth="yes"/>
      <point x="405" y="105"/>
      <point x="318" y="-10"/>
      <point x="192" y="-10" type="curve" smooth="yes"/>
      <point x="150" y="-10"/>
      <point x="115" y="2"/>
      <point x="87" y="26" type="curve"/>
      <point x="-3" y="-95" type="line"/>
      <point x="-48" y="-95" type="line"/>
      <point x="64" y="51" type="line"/>
      <point x="44" y="80"/>
      <point x="33" y="119"/>
      <point x="33" y="168" type="curve" smooth="yes"/>
      <point x="33" y="170" type="line" smooth="yes"/>
      <point x="33" y="204"/>
      <point x="37" y="241"/>
      <point x="46" y="277" type="curve" smooth="yes"/>
      <point x="79" y="412"/>
      <point x="166" y="527"/>
      <point x="292" y="527" type="curve" smooth="yes"/>
      <point x="334" y="527"/>
      <point x="369" y="515"/>
      <point x="396" y="491" type="curve"/>
      <point x="487" y="612" type="line"/>
    </contour>
    <contour>
      <point x="364" y="448" type="line"/>
      <point x="347" y="471"/>
      <point x="321" y="483"/>
      <point x="290" y="483" type="curve" smooth="yes"/>
      <point x="202" y="483"/>
      <point x="139" y="395"/>
      <point x="112" y="288" type="curve" smooth="yes"/>
      <point x="101" y="246"/>
      <point x="95" y="206"/>
      <point x="95" y="169" type="curve" smooth="yes"/>
      <point x="95" y="167" type="line" smooth="yes"/>
      <point x="95" y="141"/>
      <point x="98" y="119"/>
      <point x="104" y="101" type="curve"/>
    </contour>
    <contour>
      <point x="389" y="347" type="curve" smooth="yes"/>
      <point x="389" y="349" type="line" smooth="yes"/>
      <point x="389" y="376"/>
      <point x="386" y="398"/>
      <point x="379" y="417" type="curve"/>
      <point x="120" y="70" type="line"/>
      <point x="137" y="46"/>
      <point x="163" y="34"/>
      <point x="194" y="34" type="curve" smooth="yes"/>
      <point x="282" y="34"/>
      <point x="344" y="122"/>
      <point x="372" y="229" type="curve" smooth="yes"/>
      <point x="383" y="271"/>
      <point x="389" y="310"/>
    </contour>
  </outline>
</glyph>
<glyph name="thorn" format="1">
  <advance width="509"/>
  <unicode hex="00FE"/>
  <outline>
    <contour>
      <point x="477" y="363" type="line" smooth="yes"/>
      <point x="477" y="156"/>
      <point x="354" y="-10"/>
      <point x="241" y="-10" type="curve" smooth="yes"/>
      <point x="174" y="-10"/>
      <point x="144" y="29"/>
      <point x="105" y="113" type="curve"/>
      <point x="99" y="113" type="line"/>
      <point x="25" y="-188" type="line"/>
      <point x="-42" y="-188" type="line"/>
      <point x="189" y="738" type="line"/>
      <point x="261" y="761" type="line"/>
      <point x="167" y="382" type="line"/>
      <point x="172" y="382" type="line"/>
      <point x="254" y="490"/>
      <point x="305" y="526"/>
      <point x="361" y="526" type="curve" smooth="yes"/>
      <point x="442" y="526"/>
      <point x="477" y="455"/>
      <point x="477" y="365" type="curve" smooth="yes"/>
    </contour>
    <contour>
      <point x="410" y="353" type="curve" smooth="yes"/>
      <point x="410" y="423"/>
      <point x="393" y="478"/>
      <point x="330" y="478" type="curve" smooth="yes"/>
      <point x="244" y="478"/>
      <point x="121" y="279"/>
      <point x="121" y="194" type="curve" smooth="yes"/>
      <point x="121" y="115"/>
      <point x="167" y="37"/>
      <point x="227" y="37" type="curve" smooth="yes"/>
      <point x="316" y="37"/>
      <point x="410" y="191"/>
    </contour>
  </outline>
</glyph>
<glyph name="dotlessi" format="1">
  <advance width="224"/>
  <unicode hex="0131"/>
  <outline>
    <contour>
      <point x="210" y="517" type="line"/>
      <point x="81" y="0" type="line"/>
      <point x="14" y="0" type="line"/>
      <point x="143" y="517" type="line"/>
    </contour>
  </outline>
</glyph>
<glyph name="Lslash" format="1">
  <advance width="542"/>
  <unicode hex="0141"/>
  <outline>
    <contour>
      <point x="475" y="59" type="line"/>
      <point x="460" y="0" type="line"/>
      <point x="55" y="0" type="line"/>
      <point x="136" y="327" type="line"/>
      <point x="34" y="284" type="line"/>
      <point x="50" y="346" type="line"/>
      <point x="151" y="388" type="line"/>
      <point x="234" y="720" type="line"/>
      <point x="305" y="720" type="line"/>
      <point x="230" y="419" type="line"/>
      <point x="394" y="487" type="line"/>
      <point x="379" y="425" type="line"/>
      <point x="215" y="358" type="line"/>
      <point x="140" y="59" type="line"/>
    </contour>
  </outline>
</glyph>
<glyph name="lslash" format="1">
  <advance width="295"/>
  <unicode hex="0142"/>
  <outline>
    <contour>
      <point x="315" y="453" type="line"/>
      <point x="300" y="394" type="line"/>
      <point x="203" y="353" type="line"/>
      <point x="116" y="0" type="line"/>
      <point x="51" y="0" type="line"/>
      <point x="132" y="326" type="line"/>
      <point x="35" y="285" type="line"/>
      <point x="50" y="344" type="line"/>
      <point x="147" y="384" type="line"/>
      <point x="234" y="738" type="line"/>
      <point x="304" y="761" type="line"/>
      <point x="218" y="412" type="line"/>
    </contour>
  </outline>
</glyph>
<glyph name="florin" format="1">
  <advance width="416"/>
  <unicode hex="0192"/>
  <outline>
    <contour>
      <point x="475" y="705" type="curve"/>
      <point x="461" y="651" type="line"/>
      <point x="440" y="664"/>
      <point x="414" y="676"/>
      <point x="376" y="676" type="curve" smooth="yes"/>
      <point x="335" y="676"/>
      <point x="307" y="653"/>
      <point x="292" y="591" type="curve" smooth="yes"/>
      <point x="259" y="458" type="line"/>
      <point x="387" y="458" type="line"/>
      <point x="375" y="408" type="line"/>
      <point x="247" y="408" type="line"/>
      <point x="125" y="-83" type="line" smooth="yes"/>
      <point x="105" y="-165"/>
      <point x="55" y="-190"/>
      <point x="-10" y="-190" type="curve" smooth="yes"/>
      <point x="-38" y="-190"/>
      <point x="-61" y="-184"/>
      <point x="-84" y="-175" type="curve"/>
      <point x="-71" y="-126" type="line"/>
      <point x="-54" y="-135"/>
      <point x="-36" y="-141"/>
      <point x="-15" y="-141" type="curve" smooth="yes"/>
      <point x="26" y="-141"/>
      <point x="48" y="-121"/>
      <point x="60" y="-73" type="curve" smooth="yes"/>
      <point x="180" y="408" type="line"/>
      <point x="77" y="408" type="line"/>
      <point x="89" y="458" type="line"/>
      <point x="192" y="458" type="line"/>
      <point x="226" y="596" type="line" smooth="yes"/>
      <point x="249" y="688"/>
      <point x="300" y="726"/>
      <point x="376" y="726" type="curve" smooth="yes"/>
      <point x="415" y="726"/>
      <point x="449" y="717"/>
    </contour>
  </outline>
</glyph>
<glyph name="circumflex" format="1">
  <advance width="500"/>
  <unicode hex="02C6"/>
  <outline>
    <contour>
      <point x="485" y="588" type="line"/>
      <point x="451" y="588" type="line"/>
      <point x="361" y="695" type="line"/>
      <point x="219" y="588" type="line"/>
      <point x="178" y="588" type="line"/>
      <point x="341" y="746" type="line"/>
      <point x="401" y="746" type="line"/>
    </contour>
  </outline>
</glyph>
<glyph name="caron" format="1">
  <advance width="500"/>
  <unicode hex="02C7"/>
  <outline>
    <contour>
      <point x="525" y="750" type="line"/>
      <point x="362" y="592" type="line"/>
      <point x="302" y="592" type="line"/>
      <point x="217" y="750" type="line"/>
      <point x="252" y="750" type="line"/>
      <point x="342" y="644" type="line"/>
      <point x="484" y="750" type="line"/>
    </contour>
  </outline>
</glyph>
<glyph name="ring" format="1">
  <advance width="500"/>
  <unicode hex="02DA"/>
  <outline>
    <contour>
      <point x="448" y="675" type="curve" smooth="yes"/>
      <point x="448" y="623"/>
      <point x="408" y="585"/>
      <point x="352" y="585" type="curve" smooth="yes"/>
      <point x="295" y="585"/>
      <point x="256" y="623"/>
      <point x="256" y="675" type="curve" smooth="yes"/>
      <point x="256" y="727"/>
      <point x="295" y="765"/>
      <point x="352" y="765" type="curve" smooth="yes"/>
      <point x="408" y="765"/>
      <point x="448" y="727"/>
    </contour>
    <contour>
      <point x="407" y="675" type="curve" smooth="yes"/>
      <point x="407" y="709"/>
      <point x="384" y="733"/>
      <point x="352" y="733" type="curve" smooth="yes"/>
      <point x="320" y="733"/>
      <point x="296" y="709"/>
      <point x="296" y="675" type="curve" smooth="yes"/>
      <point x="296" y="641"/>
      <point x="319" y="617"/>
      <point x="352" y="617" type="curve" smooth="yes"/>
      <point x="384" y="617"/>
      <point x="407" y="641"/>
    </contour>
  </outline>
</glyph>
<glyph name="ogonek" format="1">
  <advance width="500"/>
  <unicode hex="02DB"/>
  <outline>
    <contour>
      <point x="268" y="-155" type="line"/>
      <point x="223" y="-178"/>
      <point x="180" y="-190"/>
      <point x="146" y="-190" type="curve" smooth="yes"/>
      <point x="89" y="-190"/>
      <point x="56" y="-165"/>
      <point x="56" y="-125" type="curve" smooth="yes"/>
      <point x="56" y="-87"/>
      <point x="91" y="-43"/>
      <point x="174" y="0" type="curve"/>
      <point x="216" y="0" type="line"/>
      <point x="144" y="-44"/>
      <point x="116" y="-85"/>
      <point x="116" y="-113" type="curve" smooth="yes"/>
      <point x="116" y="-138"/>
      <point x="137" y="-153"/>
      <point x="169" y="-153" type="curve" smooth="yes"/>
      <point x="200" y="-153"/>
      <point x="226" y="-145"/>
      <point x="263" y="-131" type="curve"/>
    </contour>
  </outline>
</glyph>
<glyph name="tilde" format="1">
  <advance width="500"/>
  <unicode hex="02DC"/>
  <outline>
    <contour>
      <point x="513" y="700" type="line"/>
      <point x="500" y="627"/>
      <point x="469" y="593"/>
      <point x="412" y="593" type="curve" smooth="yes"/>
      <point x="352" y="593"/>
      <point x="312" y="651"/>
      <point x="272" y="651" type="curve" smooth="yes"/>
      <point x="243" y="651"/>
      <point x="228" y="633"/>
      <point x="218" y="595" type="curve"/>
      <point x="180" y="595" type="line"/>
      <point x="193" y="668"/>
      <point x="223" y="702"/>
      <point x="281" y="702" type="curve" smooth="yes"/>
      <point x="341" y="702"/>
      <point x="381" y="644"/>
      <point x="421" y="644" type="curve" smooth="yes"/>
      <point x="450" y="644"/>
      <point x="465" y="662"/>
      <point x="475" y="700" type="curve"/>
    </contour>
  </outline>
</glyph>
<glyph name="quoteright" format="1">
  <advance width="186"/>
  <unicode hex="2019"/>
  <unicode hex="02BC"/>
  <outline>
    <contour>
      <point x="275" y="720" type="line"/>
      <point x="146" y="505" type="line"/>
      <point x="100" y="505" type="line"/>
      <point x="191" y="720" type="line"/>
    </contour>
  </outline>
</glyph>
<glyph name="quotesinglbase" format="1">
  <advance width="186"/>
  <unicode hex="201A"/>
  <outline>
    <contour>
      <point x="110" y="96" type="line"/>
      <point x="-19" y="-119" type="line"/>
      <point x="-65" y="-119" type="line"/>
      <point x="26" y="96" type="line"/>
    </contour>
  </outline>
</glyph>
<glyph name="quotedblleft" format="1">
  <advance width="334"/>
  <unicode hex="201C"/>
  <outline>
    <contour>
      <point x="369" y="720" type="line"/>
      <point x="355" y="505" type="line"/>
      <point x="316" y="505" type="line"/>
      <point x="294" y="720" type="line"/>
    </contour>
    <contour>
      <point x="222" y="720" type="line"/>
      <point x="208" y="505" type="line"/>
      <point x="169" y="505" type="line"/>
      <point x="148" y="720" type="line"/>
    </contour>
  </outline>
</glyph>
<glyph name="daggerdbl" format="1">
  <advance width="463"/>
  <unicode hex="2021"/>
  <outline>
    <contour>
      <point x="487" y="544" type="line"/>
      <point x="472" y="485" type="line"/>
      <point x="311" y="502" type="line"/>
      <point x="293" y="360" type="line"/>
      <point x="241" y="218" type="line"/>
      <point x="410" y="235" type="line"/>
      <point x="395" y="176" type="line"/>
      <point x="234" y="194" type="line"/>
      <point x="205" y="0" type="line"/>
      <point x="129" y="0" type="line"/>
      <point x="196" y="194" type="line"/>
      <point x="26" y="176" type="line"/>
      <point x="41" y="235" type="line"/>
      <point x="202" y="218" type="line"/>
      <point x="220" y="360" type="line"/>
      <point x="273" y="502" type="line"/>
      <point x="103" y="485" type="line"/>
      <point x="118" y="544" type="line"/>
      <point x="279" y="526" type="line"/>
      <point x="309" y="720" type="line"/>
      <point x="385" y="720" type="line"/>
      <point x="318" y="526" type="line"/>
    </contour>
  </outline>
</glyph>
<glyph name="ellipsis" format="1">
  <advance width="589"/>
  <unicode hex="2026"/>
  <outline>
    <contour>
      <point x="493" y="42" type="curve" smooth="yes"/>
      <point x="493" y="14"/>
      <point x="473" y="-7"/>
      <point x="445" y="-7" type="curve" smooth="yes"/>
      <point x="416" y="-7"/>
      <point x="396" y="14"/>
      <point x="396" y="42" type="curve" smooth="yes"/>
      <point x="396" y="70"/>
      <point x="416" y="90"/>
      <point x="445" y="90" type="curve" smooth="yes"/>
      <point x="473" y="90"/>
      <point x="493" y="70"/>
    </contour>
    <contour>
      <point x="291" y="42" type="curve" smooth="yes"/>
      <point x="291" y="14"/>
      <point x="270" y="-7"/>
      <point x="242" y="-7" type="curve" smooth="yes"/>
      <point x="214" y="-7"/>
      <point x="193" y="14"/>
      <point x="193" y="42" type="curve" smooth="yes"/>
      <point x="193" y="70"/>
      <point x="214" y="90"/>
      <point x="242" y="90" type="curve" smooth="yes"/>
      <point x="270" y="90"/>
      <point x="291" y="70"/>
    </contour>
    <contour>
      <point x="88" y="42" type="curve" smooth="yes"/>
      <point x="88" y="14"/>
      <point x="68" y="-7"/>
      <point x="40" y="-7" type="curve" smooth="yes"/>
      <point x="12" y="-7"/>
      <point x="-9" y="14"/>
      <point x="-9" y="42" type="curve" smooth="yes"/>
      <point x="-9" y="70"/>
      <point x="12" y="90"/>
      <point x="40" y="90" type="curve" smooth="yes"/>
      <point x="68" y="90"/>
      <point x="88" y="70"/>
    </contour>
  </outline>
</glyph>
<glyph name="guilsinglleft" format="1">
  <advance width="265"/>
  <unicode hex="2039"/>
  <outline>
    <contour>
      <point x="277" y="439" type="line"/>
      <point x="104" y="254" type="line"/>
      <point x="183" y="78" type="line"/>
      <point x="141" y="78" type="line"/>
      <point x="28" y="258" type="line"/>
      <point x="229" y="439" type="line"/>
    </contour>
  </outline>
</glyph>
<glyph name="guilsinglright" format="1">
  <advance width="265"/>
  <unicode hex="203A"/>
  <outline>
    <contour>
      <point x="236" y="258" type="line"/>
      <point x="35" y="78" type="line"/>
      <point x="-13" y="78" type="line"/>
      <point x="160" y="263" type="line"/>
      <point x="81" y="439" type="line"/>
      <point x="123" y="439" type="line"/>
    </contour>
  </outline>
</glyph>
<glyph name="fraction" format="1">
  <advance width="370"/>
  <unicode hex="2044"/>
  <outline>
    <contour>
      <point x="514" y="735" type="line"/>
      <point x="-27" y="-15" type="line"/>
      <point x="-94" y="-15" type="line"/>
      <point x="447" y="735" type="line"/>
    </contour>
  </outline>
</glyph>
<glyph name="Euro" format="1">
  <advance width="576"/>
  <unicode hex="20AC"/>
  <outline>
    <contour>
      <point x="594" y="528" type="curve"/>
      <point x="536" y="503" type="line"/>
      <point x="529" y="616"/>
      <point x="489" y="679"/>
      <point x="399" y="679" type="curve" smooth="yes"/>
      <point x="297" y="679"/>
      <point x="216" y="579"/>
      <point x="171" y="455" type="curve"/>
      <point x="402" y="455" type="line"/>
      <point x="391" y="410" type="line"/>
      <point x="157" y="410" type="line"/>
      <point x="146" y="372"/>
      <point x="138" y="335"/>
      <point x="134" y="300" type="curve"/>
      <point x="363" y="300" type="line"/>
      <point x="353" y="255" type="line"/>
      <point x="130" y="255" type="line"/>
      <point x="129" y="247"/>
      <point x="129" y="240"/>
      <point x="129" y="232" type="curve" smooth="yes"/>
      <point x="129" y="230" type="line" smooth="yes"/>
      <point x="129" y="125"/>
      <point x="171" y="41"/>
      <point x="270" y="41" type="curve" smooth="yes"/>
      <point x="353" y="41"/>
      <point x="415" y="101"/>
      <point x="469" y="202" type="curve"/>
      <point x="515" y="170" type="line"/>
      <point x="451" y="53"/>
      <point x="369" y="-12"/>
      <point x="263" y="-12" type="curve" smooth="yes"/>
      <point x="132" y="-12"/>
      <point x="61" y="81"/>
      <point x="61" y="229" type="curve" smooth="yes"/>
      <point x="61" y="232" type="line" smooth="yes"/>
      <point x="61" y="277"/>
      <point x="65" y="320"/>
      <point x="77" y="372" type="curve" smooth="yes"/>
      <point x="120" y="565"/>
      <point x="237" y="732"/>
      <point x="403" y="732" type="curve" smooth="yes"/>
      <point x="525" y="732"/>
      <point x="586" y="657"/>
    </contour>
  </outline>
</glyph>
<glyph name="uni2117" format="1">
  <advance width="835"/>
  <unicode hex="2117"/>
  <outline>
    <contour>
      <point x="815" y="360" type="curve" smooth="yes"/>
      <point x="815" y="150"/>
      <point x="653" y="-12"/>
      <point x="443" y="-12" type="curve" smooth="yes"/>
      <point x="232" y="-12"/>
      <point x="71" y="149"/>
      <point x="71" y="360" type="curve" smooth="yes"/>
      <point x="71" y="570"/>
      <point x="232" y="732"/>
      <point x="443" y="732" type="curve" smooth="yes"/>
      <point x="654" y="732"/>
      <point x="815" y="571"/>
    </contour>
    <contour>
      <point x="779" y="360" type="curve" smooth="yes"/>
      <point x="779" y="553"/>
      <point x="636" y="700"/>
      <point x="443" y="700" type="curve" smooth="yes"/>
      <point x="250" y="700"/>
      <point x="107" y="553"/>
      <point x="107" y="360" type="curve" smooth="yes"/>
      <point x="107" y="167"/>
      <point x="250" y="20"/>
      <point x="443" y="20" type="curve" smooth="yes"/>
      <point x="636" y="20"/>
      <point x="779" y="167"/>
    </contour>
    <contour>
      <point x="600" y="446" type="curve" smooth="yes"/>
      <point x="600" y="370"/>
      <point x="549" y="325"/>
      <point x="458" y="325" type="curve" smooth="yes"/>
      <point x="392" y="325" type="line"/>
      <point x="392" y="159" type="line"/>
      <point x="336" y="159" type="line"/>
      <point x="336" y="565" type="line"/>
      <point x="462" y="565" type="line" smooth="yes"/>
      <point x="549" y="565"/>
      <point x="600" y="521"/>
    </contour>
    <contour>
      <point x="545" y="445" type="curve" smooth="yes"/>
      <point x="545" y="492"/>
      <point x="515" y="520"/>
      <point x="457" y="520" type="curve" smooth="yes"/>
      <point x="391" y="520" type="line"/>
      <point x="391" y="369" type="line"/>
      <point x="460" y="369" type="line" smooth="yes"/>
      <point x="515" y="369"/>
      <point x="545" y="395"/>
    </contour>
  </outline>
</glyph>
<glyph name="trademark" format="1">
  <advance width="780"/>
  <unicode hex="2122"/>
  <outline>
    <contour>
      <point x="826" y="720" type="line"/>
      <point x="741" y="380" type="line"/>
      <point x="700" y="380" type="line"/>
      <point x="776" y="680" type="line"/>
      <point x="773" y="680" type="line"/>
      <point x="593" y="380" type="line"/>
      <point x="544" y="380" type="line"/>
      <point x="515" y="680" type="line"/>
      <point x="512" y="680" type="line"/>
      <point x="437" y="380" type="line"/>
      <point x="395" y="380" type="line"/>
      <point x="480" y="720" type="line"/>
      <point x="551" y="720" type="line"/>
      <point x="578" y="427" type="line"/>
      <point x="581" y="427" type="line"/>
      <point x="755" y="720" type="line"/>
    </contour>
    <contour>
      <point x="414" y="720" type="line"/>
      <point x="404" y="683" type="line"/>
      <point x="295" y="683" type="line"/>
      <point x="219" y="380" type="line"/>
      <point x="175" y="380" type="line"/>
      <point x="250" y="683" type="line"/>
      <point x="140" y="683" type="line"/>
      <point x="150" y="720" type="line"/>
    </contour>
  </outline>
</glyph>
<glyph name="minus" format="1">
  <advance width="600"/>
  <unicode hex="2212"/>
  <outline>
    <contour>
      <point x="579" y="323" type="line"/>
      <point x="70" y="323" type="line"/>
      <point x="70" y="387" type="line"/>
      <point x="579" y="387" type="line"/>
    </contour>
  </outline>
</glyph>
<glyph name="fi" format="1">
  <advance width="548"/>
  <unicode hex="FB01"/>
  <outline>
    <contour>
      <point x="592" y="722" type="line"/>
      <point x="571" y="637" type="line"/>
      <point x="490" y="637" type="line"/>
      <point x="511" y="722" type="line"/>
    </contour>
    <contour>
      <point x="534" y="517" type="line"/>
      <point x="405" y="0" type="line"/>
      <point x="338" y="0" type="line"/>
      <point x="467" y="517" type="line"/>
    </contour>
    <contour>
      <point x="456" y="740" type="curve"/>
      <point x="442" y="688" type="line"/>
      <point x="423" y="699"/>
      <point x="398" y="711"/>
      <point x="361" y="711" type="curve" smooth="yes"/>
      <point x="320" y="711"/>
      <point x="290" y="687"/>
      <point x="275" y="625" type="curve" smooth="yes"/>
      <point x="247" y="512" type="line"/>
      <point x="376" y="512" type="line"/>
      <point x="364" y="464" type="line"/>
      <point x="235" y="464" type="line"/>
      <point x="74" y="-188" type="line"/>
      <point x="7" y="-188" type="line"/>
      <point x="170" y="464" type="line"/>
      <point x="67" y="464" type="line"/>
      <point x="79" y="512" type="line"/>
      <point x="182" y="512" type="line"/>
      <point x="211" y="630" type="line" smooth="yes"/>
      <point x="233" y="721"/>
      <point x="283" y="759"/>
      <point x="363" y="759" type="curve" smooth="yes"/>
      <point x="400" y="759"/>
      <point x="434" y="750"/>
    </contour>
  </outline>
</glyph>
<glyph name="fl" format="1">
  <advance width="548"/>
  <unicode hex="FB02"/>
  <outline>
    <contour>
      <point x="593" y="761" type="line"/>
      <point x="405" y="0" type="line"/>
      <point x="338" y="0" type="line"/>
      <point x="522" y="738" type="line"/>
    </contour>
    <contour>
      <point x="456" y="740" type="curve"/>
      <point x="442" y="688" type="line"/>
      <point x="423" y="699"/>
      <point x="398" y="711"/>
      <point x="361" y="711" type="curve" smooth="yes"/>
      <point x="320" y="711"/>
      <point x="290" y="687"/>
      <point x="275" y="625" type="curve" smooth="yes"/>
      <point x="247" y="512" type="line"/>
      <point x="376" y="512" type="line"/>
      <point x="364" y="464" type="line"/>
      <point x="235" y="464" type="line"/>
      <point x="74" y="-188" type="line"/>
      <point x="7" y="-188" type="line"/>
      <point x="170" y="464" type="line"/>
      <point x="67" y="464" type="line"/>
      <point x="79" y="512" type="line"/>
      <point x="182" y="512" type="line"/>
      <point x="211" y="630" type="line" smooth="yes"/>
      <point x="233" y="721"/>
      <point x="283" y="759"/>
      <point x="363" y="759" type="curve" smooth="yes"/>
      <point x="400" y="759"/>
      <point x="434" y="750"/>
    </contour>
  </outline>
</glyph>
<glyph name="a.salt" format="1">
  <advance width="483"/>
  <outline>
    <contour>
      <point x="438" y="419" type="curve" smooth="yes"/>
      <point x="438" y="401"/>
      <point x="436" y="381"/>
      <point x="430" y="357" type="curve" smooth="yes"/>
      <point x="366" y="104" type="line" smooth="yes"/>
      <point x="364" y="95"/>
      <point x="362" y="82"/>
      <point x="362" y="74" type="curve" smooth="yes"/>
      <point x="362" y="50"/>
      <point x="375" y="33"/>
      <point x="404" y="29" type="curve"/>
      <point x="395" y="-5" type="line"/>
      <point x="328" y="-1"/>
      <point x="297" y="34"/>
      <point x="301" y="85" type="curve"/>
      <point x="294" y="85" type="line"/>
      <point x="225" y="20"/>
      <point x="180" y="-8"/>
      <point x="121" y="-8" type="curve" smooth="yes"/>
      <point x="57" y="-8"/>
      <point x="9" y="31"/>
      <point x="9" y="102" type="curve" smooth="yes"/>
      <point x="9" y="221"/>
      <point x="116" y="306"/>
      <point x="352" y="305" type="curve"/>
      <point x="366" y="358" type="line" smooth="yes"/>
      <point x="371" y="376"/>
      <point x="373" y="391"/>
      <point x="373" y="404" type="curve" smooth="yes"/>
      <point x="373" y="452"/>
      <point x="345" y="473"/>
      <point x="284" y="473" type="curve" smooth="yes"/>
      <point x="234" y="473"/>
      <point x="199" y="463"/>
      <point x="134" y="436" type="curve"/>
      <point x="124" y="481" type="line"/>
      <point x="187" y="508"/>
      <point x="237" y="523"/>
      <point x="300" y="523" type="curve" smooth="yes"/>
      <point x="394" y="523"/>
      <point x="438" y="486"/>
    </contour>
    <contour>
      <point x="345" y="270" type="line"/>
      <point x="141" y="272"/>
      <point x="75" y="194"/>
      <point x="75" y="113" type="curve" smooth="yes"/>
      <point x="75" y="65"/>
      <point x="107" y="37"/>
      <point x="153" y="37" type="curve" smooth="yes"/>
      <point x="198" y="37"/>
      <point x="247" y="67"/>
      <point x="310" y="133" type="curve"/>
    </contour>
  </outline>
</glyph>
<glyph name="bullet" format="1">
  <advance width="361"/>
  <outline>
    <contour>
      <point x="332" y="373" type="curve" smooth="yes"/>
      <point x="332" y="304"/>
      <point x="278" y="250"/>
      <point x="209" y="250" type="curve" smooth="yes"/>
      <point x="140" y="250"/>
      <point x="86" y="304"/>
      <point x="86" y="373" type="curve" smooth="yes"/>
      <point x="86" y="442"/>
      <point x="140" y="496"/>
      <point x="209" y="496" type="curve" smooth="yes"/>
      <point x="278" y="496"/>
      <point x="332" y="442"/>
    </contour>
  </outline>
</glyph>
<glyph name="macron" format="1">
  <advance width="500"/>
  <outline>
    <contour>
      <point x="494" y="684" type="line"/>
      <point x="481" y="631" type="line"/>
      <point x="203" y="631" type="line"/>
      <point x="216" y="684" type="line"/>
    </contour>
  </outline>
</glyph>
<glyph name="registered" format="1">
  <advance width="527"/>
  <outline>
    <contour>
      <point x="547" y="504" type="curve" smooth="yes"/>
      <point x="547" y="378"/>
      <point x="450" y="281"/>
      <point x="324" y="281" type="curve" smooth="yes"/>
      <point x="198" y="281"/>
      <point x="101" y="377"/>
      <point x="101" y="504" type="curve" smooth="yes"/>
      <point x="101" y="630"/>
      <point x="198" y="727"/>
      <point x="324" y="727" type="curve" smooth="yes"/>
      <point x="451" y="727"/>
      <point x="547" y="630"/>
    </contour>
    <contour>
      <point x="521" y="504" type="curve" smooth="yes"/>
      <point x="521" y="617"/>
      <point x="437" y="704"/>
      <point x="324" y="704" type="curve" smooth="yes"/>
      <point x="211" y="704"/>
      <point x="127" y="617"/>
      <point x="127" y="504" type="curve" smooth="yes"/>
      <point x="127" y="391"/>
      <point x="211" y="304"/>
      <point x="324" y="304" type="curve" smooth="yes"/>
      <point x="438" y="304"/>
      <point x="521" y="391"/>
    </contour>
    <contour>
      <point x="429" y="382" type="line"/>
      <point x="384" y="382" type="line"/>
      <point x="314" y="487" type="line"/>
      <point x="287" y="487" type="line"/>
      <point x="287" y="382" type="line"/>
      <point x="247" y="382" type="line"/>
      <point x="247" y="632" type="line"/>
      <point x="330" y="632" type="line" smooth="yes"/>
      <point x="383" y="632"/>
      <point x="416" y="607"/>
      <point x="416" y="560" type="curve" smooth="yes"/>
      <point x="416" y="522"/>
      <point x="392" y="498"/>
      <point x="357" y="491" type="curve"/>
    </contour>
    <contour>
      <point x="376" y="560" type="curve" smooth="yes"/>
      <point x="376" y="586"/>
      <point x="359" y="600"/>
      <point x="327" y="600" type="curve" smooth="yes"/>
      <point x="286" y="600" type="line"/>
      <point x="286" y="519" type="line"/>
      <point x="328" y="519" type="line" smooth="yes"/>
      <point x="358" y="519"/>
      <point x="376" y="532"/>
    </contour>
  </outline>
</glyph>
